<svg width="19" height="19" viewBox="0 0 19 19" fill="none" xmlns="http://www.w3.org/2000/svg">
<path d="M8.15417 16.6247C8.28668 16.8657 8.48148 17.0667 8.71822 17.2067C8.95496 17.3467 9.22496 17.4206 9.5 17.4206C9.77504 17.4206 10.045 17.3467 10.2818 17.2067C10.5185 17.0667 10.7133 16.8657 10.8458 16.6247M4.75 6.33301C4.75 5.07323 5.25045 3.86505 6.14124 2.97425C7.03204 2.08345 8.24022 1.58301 9.5 1.58301C10.7598 1.58301 11.968 2.08345 12.8588 2.97425C13.7496 3.86505 14.25 5.07323 14.25 6.33301C14.25 11.8747 16.625 13.458 16.625 13.458H2.375C2.375 13.458 4.75 11.8747 4.75 6.33301Z" stroke="#5B50A0" stroke-width="2" stroke-linecap="round" stroke-linejoin="round"/>
</svg>
