<svg width="74" height="74" viewBox="0 0 74 74" fill="none" xmlns="http://www.w3.org/2000/svg">
<path d="M37 16.6V30.2M43.8 43.8H30.2M43.8 57.4H30.2M43.8 23.4H30.2M57.4 37H64.2C66.0035 37 67.7331 37.7164 69.0083 38.9917C70.2836 40.2669 71 41.9965 71 43.8V64.2C71 66.0035 70.2836 67.7331 69.0083 69.0083C67.7331 70.2836 66.0035 71 64.2 71H9.8C7.99653 71 6.26692 70.2836 4.99167 69.0083C3.71643 67.7331 3 66.0035 3 64.2V33.6C3 31.7965 3.71643 30.0669 4.99167 28.7917C6.26692 27.5164 7.99653 26.8 9.8 26.8H16.6M57.4 71V9.8C57.4 7.99653 56.6836 6.26692 55.4083 4.99167C54.1331 3.71643 52.4035 3 50.6 3H23.4C21.5965 3 19.8669 3.71643 18.5917 4.99167C17.3164 6.26692 16.6 7.99653 16.6 9.8V71" stroke="#3F52FF" stroke-width="5" stroke-linecap="round" stroke-linejoin="round"/>
</svg>
