<svg width="77" height="75" viewBox="0 0 77 75" fill="none" xmlns="http://www.w3.org/2000/svg">
<path d="M34.9071 47.85H41.9975C43.878 47.85 45.6815 47.123 47.0112 45.829C48.341 44.535 49.088 42.78 49.088 40.95C49.088 39.12 48.341 37.365 47.0112 36.071C45.6815 34.777 43.878 34.05 41.9975 34.05H31.3618C29.2347 34.05 27.4621 34.74 26.3985 36.12L6.54523 54.75M20.7261 68.55L26.3985 63.72C27.4621 62.34 29.2347 61.65 31.3618 61.65H45.5428C49.4425 61.65 52.9877 60.27 55.4694 57.51L71.7775 42.33C73.1455 41.0719 73.944 39.3364 73.9972 37.5054C74.0504 35.6744 73.3539 33.8978 72.0611 32.5665C70.7682 31.2352 68.9849 30.4582 67.1033 30.4064C65.2218 30.3547 63.3961 31.0324 62.0281 32.2905L47.1381 45.7455M3 51.3L24.2714 72M62.9144 27.15C62.9144 32.6756 58.3113 37.155 52.6332 37.155C46.9551 37.155 42.352 32.6756 42.352 27.15C42.352 21.6244 46.9551 17.145 52.6332 17.145C58.3113 17.145 62.9144 21.6244 62.9144 27.15ZM27.8166 13.35C27.8166 19.0661 23.0548 23.7 17.1809 23.7C11.307 23.7 6.54523 19.0661 6.54523 13.35C6.54523 7.63385 11.307 3 17.1809 3C23.0548 3 27.8166 7.63385 27.8166 13.35Z" stroke="#3CC44F" stroke-width="5" stroke-linecap="round" stroke-linejoin="round"/>
</svg>
