<svg width="88" height="89" viewBox="0 0 88 89" fill="none" xmlns="http://www.w3.org/2000/svg">
<path d="M40.0055 2.99805V11.7349M15.4055 2.99805V11.7349M15.4055 7.36647H11.3055C9.13069 7.36647 7.04499 8.28695 5.50719 9.92543C3.96939 11.5639 3.10547 13.7862 3.10547 16.1033V33.577C3.10547 40.5285 5.69725 47.1952 10.3106 52.1106C14.924 57.0261 21.1811 59.7875 27.7055 59.7875M27.7055 59.7875C34.2298 59.7875 40.4869 57.0261 45.1003 52.1106C49.7137 47.1952 52.3055 40.5285 52.3055 33.577V16.1033C52.3055 13.7862 51.4415 11.5639 49.9037 9.92543C48.3659 8.28695 46.2802 7.36647 44.1055 7.36647H40.0055M27.7055 59.7875C27.7055 66.739 30.2972 73.4057 34.9106 78.3212C39.524 83.2366 45.7811 85.998 52.3055 85.998C58.8298 85.998 65.0869 83.2366 69.7003 78.3212C74.3137 73.4057 76.9055 66.739 76.9055 59.7875V46.6823M76.9055 46.6823C81.4342 46.6823 85.1055 42.7706 85.1055 37.9454C85.1055 33.1202 81.4342 29.2086 76.9055 29.2086C72.3767 29.2086 68.7055 33.1202 68.7055 37.9454C68.7055 42.7706 72.3767 46.6823 76.9055 46.6823Z" stroke="#139E9E" stroke-width="5" stroke-linecap="round" stroke-linejoin="round"/>
</svg>
