<svg width="325" height="295" viewBox="0 0 325 295" fill="none" xmlns="http://www.w3.org/2000/svg">
<path d="M162.5 39C185.675 15.75 204.833 8 232.025 8C254.562 8 276.175 16.9817 292.111 32.9691C308.047 48.9566 317 70.6403 317 93.25C317 128.745 293.67 155.87 270.65 178.5L162.5 287L54.35 178.5C31.175 156.025 8 128.9 8 93.25C8 70.6403 16.9527 48.9566 32.8886 32.9691C48.8245 16.9817 70.4382 8 92.975 8C120.167 8 139.325 15.75 162.5 39ZM162.5 39L116.768 84.88C113.629 88.0064 111.137 91.7251 109.437 95.8219C107.737 99.9186 106.862 104.312 106.862 108.75C106.862 113.188 107.737 117.581 109.437 121.678C111.137 125.775 113.629 129.494 116.768 132.62C129.437 145.33 149.676 145.795 163.118 133.705L195.099 104.255C203.116 96.9575 213.553 92.9151 224.377 92.9151C235.202 92.9151 245.639 96.9575 253.655 104.255L299.387 145.485M255.2 194L224.3 163M208.85 240.5L177.95 209.5" stroke="#FF3C84" stroke-width="15" stroke-linecap="round" stroke-linejoin="round"/>
</svg>
