<svg width="253" height="314" viewBox="0 0 253 314" fill="none" xmlns="http://www.w3.org/2000/svg">
<g filter="url(#filter0_d_155_38)">
<path d="M71.6106 61.5068C72.6525 78.3882 76.7151 95.0554 98.94 120.767C95.0333 118.17 76.8022 98.9511 70.8293 91.1142C46.0867 58.6499 54.6815 25.9259 75.2569 9.30417C95.8323 -7.31754 132.035 -1.60383 148.443 25.9259C164.851 53.4556 144.536 63.8442 133.597 62.2859C144.276 35.7951 116.408 9.82363 94.5301 19.1733C72.6525 28.5231 70.5688 44.6253 71.6106 61.5068Z" fill="url(#paint0_linear_155_38)"/>
</g>
<g filter="url(#filter1_d_155_38)">
<path d="M181.389 61.2382C180.348 78.046 141.628 126.401 119.403 152C123.309 149.414 157.428 123.039 182.171 90.7164C206.913 58.3939 198.319 25.8127 177.743 9.26355C157.168 -7.2856 120.965 -1.59683 104.557 25.8127C88.1489 53.2222 108.464 63.5655 119.403 62.014C108.724 35.6388 136.592 9.78075 158.47 19.0896C180.348 28.3985 182.431 44.4305 181.389 61.2382Z" fill="url(#paint1_linear_155_38)"/>
</g>
<g filter="url(#filter2_d_155_38)">
<path d="M131.922 62.4656C134.669 60.1942 134.974 54.5786 134.783 52.0547C129.432 54.0016 123.544 53.9961 118.191 52.0547C117.962 56.7869 119.812 60.9671 120.765 62.4656H131.922Z" fill="url(#paint2_linear_155_38)"/>
</g>
<path d="M35.436 298.079C31.644 298.079 28.5 296.831 26.004 294.335C23.508 291.815 22.26 288.707 22.26 285.011C22.26 281.315 23.508 278.219 26.004 275.723C28.5 273.203 31.644 271.943 35.436 271.943C37.716 271.943 39.816 272.483 41.736 273.563C43.68 274.643 45.192 276.107 46.272 277.955L42.672 280.043C42 278.795 41.016 277.811 39.72 277.091C38.448 276.347 37.02 275.975 35.436 275.975C32.748 275.975 30.564 276.827 28.884 278.531C27.228 280.235 26.4 282.395 26.4 285.011C26.4 287.627 27.228 289.787 28.884 291.491C30.564 293.195 32.748 294.047 35.436 294.047C37.02 294.047 38.46 293.687 39.756 292.967C41.052 292.223 42.024 291.227 42.672 289.979L46.272 292.031C45.216 293.879 43.716 295.355 41.772 296.459C39.852 297.539 37.74 298.079 35.436 298.079ZM57.9203 298.079C55.2803 298.079 53.0363 297.167 51.1883 295.343C49.3403 293.519 48.4163 291.275 48.4163 288.611C48.4163 285.947 49.3403 283.703 51.1883 281.879C53.0363 280.055 55.2803 279.143 57.9203 279.143C60.5843 279.143 62.8283 280.055 64.6523 281.879C66.5003 283.703 67.4243 285.947 67.4243 288.611C67.4243 291.275 66.5003 293.519 64.6523 295.343C62.8283 297.167 60.5843 298.079 57.9203 298.079ZM53.9243 292.679C55.0043 293.759 56.3363 294.299 57.9203 294.299C59.5043 294.299 60.8363 293.759 61.9163 292.679C62.9963 291.599 63.5363 290.243 63.5363 288.611C63.5363 286.979 62.9963 285.623 61.9163 284.543C60.8363 283.463 59.5043 282.923 57.9203 282.923C56.3363 282.923 55.0043 283.463 53.9243 284.543C52.8443 285.623 52.3043 286.979 52.3043 288.611C52.3043 290.243 52.8443 291.599 53.9243 292.679ZM90.5959 279.143C92.6359 279.143 94.2799 279.803 95.5279 281.123C96.7759 282.443 97.3999 284.219 97.3999 286.451V297.611H93.5119V286.703C93.5119 285.455 93.1999 284.495 92.5759 283.823C91.9519 283.127 91.0999 282.779 90.0199 282.779C88.8199 282.779 87.8599 283.175 87.1399 283.967C86.4439 284.759 86.0959 285.947 86.0959 287.531V297.611H82.2079V286.703C82.2079 285.455 81.9079 284.495 81.3079 283.823C80.7319 283.127 79.9039 282.779 78.8239 282.779C77.6479 282.779 76.6879 283.187 75.9439 284.003C75.1999 284.795 74.8279 285.971 74.8279 287.531V297.611H70.9399V279.611H74.8279V281.771C75.9799 280.019 77.6959 279.143 79.9759 279.143C82.2799 279.143 83.9839 280.091 85.0879 281.987C86.2879 280.091 88.1239 279.143 90.5959 279.143ZM111.749 279.143C114.221 279.143 116.333 280.067 118.085 281.915C119.837 283.739 120.713 285.971 120.713 288.611C120.713 291.275 119.837 293.519 118.085 295.343C116.333 297.167 114.221 298.079 111.749 298.079C109.013 298.079 106.913 297.071 105.449 295.055V304.811H101.561V279.611H105.449V282.203C106.913 280.163 109.013 279.143 111.749 279.143ZM107.069 292.751C108.149 293.831 109.505 294.371 111.137 294.371C112.769 294.371 114.125 293.831 115.205 292.751C116.285 291.647 116.825 290.267 116.825 288.611C116.825 286.955 116.285 285.587 115.205 284.507C114.125 283.403 112.769 282.851 111.137 282.851C109.505 282.851 108.149 283.403 107.069 284.507C105.989 285.587 105.449 286.955 105.449 288.611C105.449 290.267 105.989 291.647 107.069 292.751ZM138.493 279.611H142.381V297.611H138.493V295.019C137.029 297.059 134.929 298.079 132.193 298.079C129.721 298.079 127.609 297.167 125.857 295.343C124.105 293.495 123.229 291.251 123.229 288.611C123.229 285.947 124.105 283.703 125.857 281.879C127.609 280.055 129.721 279.143 132.193 279.143C134.929 279.143 137.029 280.151 138.493 282.167V279.611ZM128.737 292.751C129.817 293.831 131.173 294.371 132.805 294.371C134.437 294.371 135.793 293.831 136.873 292.751C137.953 291.647 138.493 290.267 138.493 288.611C138.493 286.955 137.953 285.587 136.873 284.507C135.793 283.403 134.437 282.851 132.805 282.851C131.173 282.851 129.817 283.403 128.737 284.507C127.657 285.587 127.117 286.955 127.117 288.611C127.117 290.267 127.657 291.647 128.737 292.751ZM156.381 279.143C158.445 279.143 160.113 279.803 161.385 281.123C162.657 282.443 163.293 284.255 163.293 286.559V297.611H159.405V286.955C159.405 285.611 159.045 284.579 158.325 283.859C157.605 283.139 156.621 282.779 155.373 282.779C154.005 282.779 152.901 283.211 152.061 284.075C151.221 284.915 150.801 286.211 150.801 287.963V297.611H146.913V279.611H150.801V281.915C151.977 280.067 153.837 279.143 156.381 279.143ZM171.151 276.191C170.671 276.671 170.095 276.911 169.423 276.911C168.751 276.911 168.163 276.671 167.659 276.191C167.179 275.687 166.939 275.099 166.939 274.427C166.939 273.755 167.179 273.179 167.659 272.699C168.139 272.195 168.727 271.943 169.423 271.943C170.119 271.943 170.707 272.195 171.187 272.699C171.667 273.179 171.907 273.755 171.907 274.427C171.907 275.099 171.655 275.687 171.151 276.191ZM167.479 297.611V279.611H171.367V297.611H167.479ZM184.377 298.079C181.737 298.079 179.493 297.167 177.645 295.343C175.797 293.519 174.873 291.275 174.873 288.611C174.873 285.947 175.797 283.703 177.645 281.879C179.493 280.055 181.737 279.143 184.377 279.143C187.041 279.143 189.285 280.055 191.109 281.879C192.957 283.703 193.881 285.947 193.881 288.611C193.881 291.275 192.957 293.519 191.109 295.343C189.285 297.167 187.041 298.079 184.377 298.079ZM180.381 292.679C181.461 293.759 182.793 294.299 184.377 294.299C185.961 294.299 187.293 293.759 188.373 292.679C189.453 291.599 189.993 290.243 189.993 288.611C189.993 286.979 189.453 285.623 188.373 284.543C187.293 283.463 185.961 282.923 184.377 282.923C182.793 282.923 181.461 283.463 180.381 284.543C179.301 285.623 178.761 286.979 178.761 288.611C178.761 290.243 179.301 291.599 180.381 292.679ZM206.865 279.143C208.929 279.143 210.597 279.803 211.869 281.123C213.141 282.443 213.777 284.255 213.777 286.559V297.611H209.889V286.955C209.889 285.611 209.529 284.579 208.809 283.859C208.089 283.139 207.105 282.779 205.857 282.779C204.489 282.779 203.385 283.211 202.545 284.075C201.705 284.915 201.285 286.211 201.285 287.963V297.611H197.397V279.611H201.285V281.915C202.461 280.067 204.321 279.143 206.865 279.143Z" fill="#5B50A0"/>
<path d="M19.248 250.624C14.192 250.624 10 248.96 6.672 245.632C3.344 242.272 1.68 238.128 1.68 233.2C1.68 228.272 3.344 224.144 6.672 220.816C10 217.456 14.192 215.776 19.248 215.776C22.288 215.776 25.088 216.496 27.648 217.936C30.24 219.376 32.256 221.328 33.696 223.792L28.896 226.576C28 224.912 26.688 223.6 24.96 222.64C23.264 221.648 21.36 221.152 19.248 221.152C15.664 221.152 12.752 222.288 10.512 224.56C8.304 226.832 7.2 229.712 7.2 233.2C7.2 236.688 8.304 239.568 10.512 241.84C12.752 244.112 15.664 245.248 19.248 245.248C21.36 245.248 23.28 244.768 25.008 243.808C26.736 242.816 28.032 241.488 28.896 239.824L33.696 242.56C32.288 245.024 30.288 246.992 27.696 248.464C25.136 249.904 22.32 250.624 19.248 250.624ZM56.907 226H62.091V250H56.907V246.544C54.955 249.264 52.155 250.624 48.507 250.624C45.211 250.624 42.395 249.408 40.059 246.976C37.723 244.512 36.555 241.52 36.555 238C36.555 234.448 37.723 231.456 40.059 229.024C42.395 226.592 45.211 225.376 48.507 225.376C52.155 225.376 54.955 226.72 56.907 229.408V226ZM43.899 243.52C45.339 244.96 47.147 245.68 49.323 245.68C51.499 245.68 53.307 244.96 54.747 243.52C56.187 242.048 56.907 240.208 56.907 238C56.907 235.792 56.187 233.968 54.747 232.528C53.307 231.056 51.499 230.32 49.323 230.32C47.147 230.32 45.339 231.056 43.899 232.528C42.459 233.968 41.739 235.792 41.739 238C41.739 240.208 42.459 242.048 43.899 243.52ZM80.7574 225.376C83.5094 225.376 85.7334 226.256 87.4294 228.016C89.1254 229.776 89.9734 232.192 89.9734 235.264V250H84.7894V235.792C84.7894 234 84.3094 232.624 83.3494 231.664C82.3894 230.704 81.0774 230.224 79.4134 230.224C77.5894 230.224 76.1174 230.8 74.9974 231.952C73.8774 233.072 73.3174 234.8 73.3174 237.136V250H68.1334V226H73.3174V229.072C74.8854 226.608 77.3654 225.376 80.7574 225.376ZM106.883 250.624C103.267 250.624 100.243 249.408 97.8113 246.976C95.4113 244.544 94.2113 241.552 94.2113 238C94.2113 234.416 95.4113 231.424 97.8113 229.024C100.243 226.592 103.267 225.376 106.883 225.376C109.219 225.376 111.347 225.936 113.267 227.056C115.187 228.176 116.627 229.68 117.587 231.568L113.123 234.16C112.579 233.008 111.747 232.112 110.627 231.472C109.539 230.8 108.275 230.464 106.835 230.464C104.723 230.464 102.947 231.184 101.507 232.624C100.099 234.064 99.3953 235.856 99.3953 238C99.3953 240.144 100.099 241.936 101.507 243.376C102.947 244.816 104.723 245.536 106.835 245.536C108.243 245.536 109.507 245.2 110.627 244.528C111.779 243.856 112.643 242.96 113.219 241.84L117.683 244.384C116.659 246.304 115.187 247.824 113.267 248.944C111.347 250.064 109.219 250.624 106.883 250.624ZM125.135 240.208C125.519 242.032 126.399 243.44 127.775 244.432C129.151 245.392 130.831 245.872 132.815 245.872C135.567 245.872 137.631 244.88 139.007 242.896L143.279 245.392C140.911 248.88 137.407 250.624 132.767 250.624C128.863 250.624 125.711 249.44 123.311 247.072C120.911 244.672 119.711 241.648 119.711 238C119.711 234.416 120.895 231.424 123.263 229.024C125.631 226.592 128.671 225.376 132.383 225.376C135.903 225.376 138.783 226.608 141.023 229.072C143.295 231.536 144.431 234.528 144.431 238.048C144.431 238.592 144.367 239.312 144.239 240.208H125.135ZM125.087 235.984H139.199C138.847 234.032 138.031 232.56 136.751 231.568C135.503 230.576 134.031 230.08 132.335 230.08C130.415 230.08 128.815 230.608 127.535 231.664C126.255 232.72 125.439 234.16 125.087 235.984ZM154.177 230.032C155.489 227.056 157.953 225.568 161.569 225.568V231.184C159.585 231.056 157.857 231.536 156.385 232.624C154.913 233.68 154.177 235.44 154.177 237.904V250H148.993V226H154.177V230.032ZM171.255 244.72H184.935V250H165.735V216.4H171.255V244.72ZM193.592 221.44C192.952 222.08 192.184 222.4 191.288 222.4C190.392 222.4 189.608 222.08 188.936 221.44C188.296 220.768 187.976 219.984 187.976 219.088C187.976 218.192 188.296 217.424 188.936 216.784C189.576 216.112 190.36 215.776 191.288 215.776C192.216 215.776 193 216.112 193.64 216.784C194.28 217.424 194.6 218.192 194.6 219.088C194.6 219.984 194.264 220.768 193.592 221.44ZM188.696 250V226H193.88V250H188.696ZM212.523 225.376C215.275 225.376 217.499 226.256 219.195 228.016C220.891 229.776 221.739 232.192 221.739 235.264V250H216.555V235.792C216.555 234 216.075 232.624 215.115 231.664C214.155 230.704 212.843 230.224 211.179 230.224C209.355 230.224 207.883 230.8 206.763 231.952C205.643 233.072 205.083 234.8 205.083 237.136V250H199.899V226H205.083V229.072C206.651 226.608 209.131 225.376 212.523 225.376ZM231.401 240.208C231.785 242.032 232.665 243.44 234.041 244.432C235.417 245.392 237.097 245.872 239.081 245.872C241.833 245.872 243.897 244.88 245.273 242.896L249.545 245.392C247.177 248.88 243.673 250.624 239.033 250.624C235.129 250.624 231.977 249.44 229.577 247.072C227.177 244.672 225.977 241.648 225.977 238C225.977 234.416 227.161 231.424 229.529 229.024C231.897 226.592 234.937 225.376 238.649 225.376C242.169 225.376 245.049 226.608 247.289 229.072C249.561 231.536 250.697 234.528 250.697 238.048C250.697 238.592 250.633 239.312 250.505 240.208H231.401ZM231.353 235.984H245.465C245.113 234.032 244.297 232.56 243.017 231.568C241.769 230.576 240.297 230.08 238.601 230.08C236.681 230.08 235.081 230.608 233.801 231.664C232.521 232.72 231.705 234.16 231.353 235.984Z" fill="#5B50A0"/>
<path d="M0 254.8H35.136V257.2H0V254.8ZM34.875 254.8H65.115V257.2H34.875V254.8ZM65.1094 254.8H118.547V257.2H65.1094V254.8ZM118.031 254.8H162.385V257.2H118.031V254.8ZM162.375 254.8H252.233V257.2H162.375V254.8Z" fill="#5B50A0"/>
<defs>
<filter id="filter0_d_155_38" x="51.7056" y="0" width="106.904" height="128.767" filterUnits="userSpaceOnUse" color-interpolation-filters="sRGB">
<feFlood flood-opacity="0" result="BackgroundImageFix"/>
<feColorMatrix in="SourceAlpha" type="matrix" values="0 0 0 0 0 0 0 0 0 0 0 0 0 0 0 0 0 0 127 0" result="hardAlpha"/>
<feOffset dy="4"/>
<feGaussianBlur stdDeviation="2"/>
<feComposite in2="hardAlpha" operator="out"/>
<feColorMatrix type="matrix" values="0 0 0 0 0 0 0 0 0 0 0 0 0 0 0 0 0 0 0.25 0"/>
<feBlend mode="normal" in2="BackgroundImageFix" result="effect1_dropShadow_155_38"/>
<feBlend mode="normal" in="SourceGraphic" in2="effect1_dropShadow_155_38" result="shape"/>
</filter>
<filter id="filter1_d_155_38" x="94.3904" y="0" width="106.904" height="160" filterUnits="userSpaceOnUse" color-interpolation-filters="sRGB">
<feFlood flood-opacity="0" result="BackgroundImageFix"/>
<feColorMatrix in="SourceAlpha" type="matrix" values="0 0 0 0 0 0 0 0 0 0 0 0 0 0 0 0 0 0 127 0" result="hardAlpha"/>
<feOffset dy="4"/>
<feGaussianBlur stdDeviation="2"/>
<feComposite in2="hardAlpha" operator="out"/>
<feColorMatrix type="matrix" values="0 0 0 0 0 0 0 0 0 0 0 0 0 0 0 0 0 0 0.25 0"/>
<feBlend mode="normal" in2="BackgroundImageFix" result="effect1_dropShadow_155_38"/>
<feBlend mode="normal" in="SourceGraphic" in2="effect1_dropShadow_155_38" result="shape"/>
</filter>
<filter id="filter2_d_155_38" x="114.171" y="52.0547" width="24.6575" height="18.4111" filterUnits="userSpaceOnUse" color-interpolation-filters="sRGB">
<feFlood flood-opacity="0" result="BackgroundImageFix"/>
<feColorMatrix in="SourceAlpha" type="matrix" values="0 0 0 0 0 0 0 0 0 0 0 0 0 0 0 0 0 0 127 0" result="hardAlpha"/>
<feOffset dy="4"/>
<feGaussianBlur stdDeviation="2"/>
<feComposite in2="hardAlpha" operator="out"/>
<feColorMatrix type="matrix" values="0 0 0 0 0 0 0 0 0 0 0 0 0 0 0 0 0 0 0.25 0"/>
<feBlend mode="normal" in2="BackgroundImageFix" result="effect1_dropShadow_155_38"/>
<feBlend mode="normal" in="SourceGraphic" in2="effect1_dropShadow_155_38" result="shape"/>
</filter>
<linearGradient id="paint0_linear_155_38" x1="105.158" y1="0" x2="105.158" y2="120.767" gradientUnits="userSpaceOnUse">
<stop stop-color="#5B50A0"/>
</linearGradient>
<linearGradient id="paint1_linear_155_38" x1="147.842" y1="0" x2="147.842" y2="157.947" gradientUnits="userSpaceOnUse">
<stop stop-color="#5B50A0"/>
</linearGradient>
<linearGradient id="paint2_linear_155_38" x1="126.5" y1="52.0547" x2="126.5" y2="71.7202" gradientUnits="userSpaceOnUse">
<stop stop-color="#5B50A0"/>
</linearGradient>
</defs>
</svg>
